# xmcd
#
# Track frame offsets:
#	150
#	13442
#	23115
#	35909
#	45681
#	58241
#	68181
#	80693
#	89641
#	101021
#	113812
#	126317
#
# Disc length: 1869 seconds
# Revision: 0
# Processed by: cddbd v1.5.2PL0 Copyright (c) Steve Scherf et al.
# Submitted via: dBpowerAMP V12.0
#
DISCID=b2074b0c
DTITLE=Magic Sam - All Your Love
DYEAR=2012
DGENRE=Blues
TTITLE0=All Your Love
TTITLE1=Love Me With A Feeling
TTITLE2=Everything Gonna Be Alright
TTITLE3=Look Whatcha Done
TTITLE4=All Night Long
TTITLE5=All My Whole Life
TTITLE6=Easy Baby
TTITLE7=21 Days In Jail
TTITLE8=Magic Rocker
TTITLE9=Love Me This Way
TTITLE10=Roll Your Money Maker
TTITLE11=Call Me If You Need Me
EXTD=
EXTT0=
EXTT1=
EXTT2=
EXTT3=
EXTT4=
EXTT5=
EXTT6=
EXTT7=
EXTT8=
EXTT9=
EXTT10=
EXTT11=
PLAYORDER=
